<svg xmlns="http://www.w3.org/2000/svg" xmlns:xlink="http://www.w3.org/1999/xlink" version="1.1" x="0px" y="0px" viewBox="0 0 512 512" style="enable-background:new 0 0 512 512;" xml:space="preserve"><g><g><g><g><g><g><path d="M255.217,512c0,0,0,0-0.003,0c-2.419-0.001-4.665-1.25-5.944-3.303c-20.996-33.725-49.892-68.908-77.838-102.936        c-18.406-22.414-37.441-45.591-54.189-68.297c-28.232-38.273-60.639-88.559-60.639-138.109C56.604,89.431,146.035,0,255.96,0        C365.93,0,455.396,89.431,455.396,199.356c0,53.176-34.512,106.679-86.332,170.652c-9.186,11.338-18.791,22.885-28.084,34.052        c-28.6,34.373-58.176,69.917-79.818,104.642C259.883,510.753,257.635,512,255.217,512z M255.96,14.01        c-102.2,0-185.347,83.146-185.347,185.346c0,35.475,17.859,75.504,57.902,129.792c16.531,22.413,35.45,45.447,53.742,67.723        c25.707,31.301,52.209,63.568,72.963,95.141c21.39-32.496,48.601-65.197,74.99-96.912        c9.262-11.133,18.842-22.645,27.967-33.91c49.945-61.658,83.209-112.775,83.209-161.833        C441.387,97.156,358.203,14.01,255.96,14.01z"></path></g></g></g></g><g><g><path d="M351.543,224.268c-1.248,0-2.492-0.474-3.441-1.425l-78.912-78.91c-0.912-0.912-1.424-2.15-1.424-3.44      c0-1.289,0.512-2.529,1.424-3.441c11.459-11.456,26.693-17.768,42.896-17.768s31.438,6.312,42.896,17.768      c11.457,11.46,17.768,26.692,17.768,42.896c0,16.204-6.311,31.438-17.768,42.896      C354.031,223.793,352.785,224.268,351.543,224.268z M279.67,140.654l71.711,71.709c7.539-9.105,11.639-20.445,11.639-32.416      c0-13.604-5.297-26.396-14.918-36.014c-9.619-9.623-22.41-14.919-36.016-14.919C300.115,129.013,288.775,133.115,279.67,140.654      z"></path></g><g><path d="M336.365,209.093c-1.291,0-2.525-0.513-3.438-1.425l-48.563-48.562c-1.9-1.897-1.9-4.978,0-6.877      c14.703-14.703,32.885-23.479,48.639-23.479c8.945,0,16.547,2.871,21.979,8.302c7.725,7.725,10.176,19.55,6.904,33.291      c-3.072,12.902-10.914,26.159-22.08,37.325C338.895,208.58,337.656,209.093,336.365,209.093z M294.783,155.767l41.484,41.482      c16.941-19.021,22.461-42.69,11.834-53.316c-3.568-3.568-8.787-5.454-15.098-5.454      C321.154,138.479,306.848,145.014,294.783,155.767z"></path></g><g><path d="M321.191,193.916c-1.246,0-2.49-0.474-3.439-1.423l-18.213-18.21c-0.912-0.912-1.422-2.15-1.422-3.438      c0-1.291,0.51-2.529,1.422-3.441c15.141-15.141,37.043-32.822,48.938-32.822c3.336,0,5.379,1.343,6.506,2.47      c4.377,4.38,2.928,12.235-4.434,24.015c-5.922,9.472-15.127,20.636-25.918,31.426      C323.682,193.441,322.436,193.916,321.191,193.916z M309.895,170.876l11.262,11.262c7.871-8.202,14.748-16.562,19.619-23.872      c4.982-7.481,6.549-11.898,6.883-13.889C342.193,145.196,327.924,153.535,309.895,170.876z"></path></g><g><path d="M290.061,272.871c0,0-0.004,0-0.008,0H153.847c-1.968,0-3.742-1.186-4.495-3.004c-0.752-1.816-0.335-3.91,1.054-5.301      l24.323-24.321c0.914-0.912,2.15-1.427,3.441-1.427h87.56c1.289,0,2.527,0.515,3.439,1.427l24.145,24.144      c0.99,0.889,1.613,2.18,1.613,3.616C294.928,270.691,292.75,272.871,290.061,272.871z M165.59,263.144h112.718l-14.594-14.594      h-83.531L165.59,263.144z"></path></g><g><path d="M248.349,248.55c-1.245,0-2.488-0.477-3.438-1.427c-1.9-1.897-1.9-4.98,0-6.877l63.734-63.737      c1.902-1.899,4.98-1.899,6.883,0c1.898,1.899,1.898,4.98,0,6.879l-63.738,63.735C250.841,248.073,249.596,248.55,248.349,248.55      z"></path></g><g><path d="M358.156,272.871H144.12c-2.688,0-4.866-2.18-4.866-4.866s2.178-4.861,4.866-4.861h214.037      c2.686,0,4.863,2.175,4.863,4.861S360.842,272.871,358.156,272.871z"></path></g><g><path d="M187.9,160.987c-13.412,0-24.323-10.911-24.323-24.323c0-13.41,10.911-24.321,24.323-24.321      c13.41,0,24.321,10.911,24.321,24.321C212.221,150.076,201.31,160.987,187.9,160.987z M187.9,122.07      c-8.05,0-14.594,6.549-14.594,14.594c0,8.049,6.544,14.593,14.594,14.593c8.045,0,14.594-6.544,14.594-14.593      C202.494,128.619,195.945,122.07,187.9,122.07z"></path></g></g></g></g></svg>