<svg xmlns="http://www.w3.org/2000/svg" xmlns:xlink="http://www.w3.org/1999/xlink" version="1.1" x="0px" y="0px" viewBox="0 0 512 512" style="enable-background:new 0 0 512 512;" xml:space="preserve"><g><path d="M43.534,382.189c6.324,0,9.479,3.852,14.502,10.665c5.095,6.913,11.441,15.515,24.125,15.515   c12.67,0,19.051-8.71,24.175-15.709l1.358-1.84c0.055-0.074,0.061-0.163,0.112-0.239c0.03-0.037,0.075-0.054,0.103-0.092   c4.312-5.62,7.323-8.3,12.741-8.3c6.417,0,9.594,3.881,14.646,10.729c3.256,4.42,7.23,9.311,12.841,12.405   c0.125,0.085,0.199,0.216,0.331,0.293c0.107,0.062,0.231,0.037,0.34,0.092c2.981,1.515,6.284,2.661,10.461,2.661   c12.684,0,19.03-8.602,24.125-15.515c5.023-6.813,8.178-10.665,14.502-10.665c2.673,0,4.836,0.654,6.798,2.048   c0.022,0.022,0.05,0.036,0.072,0.057c2.86,1.962,5.26,5.203,7.797,8.631c5.102,6.877,11.448,15.444,24.082,15.444   c12.598,0,18.915-8.588,23.988-15.487c5.023-6.827,8.171-10.693,14.509-10.693c6.353,0,9.522,3.852,14.581,10.665   c1.976,2.659,3.967,5.311,6.18,7.56c5.16,5.354,10.995,7.955,17.858,7.955c12.677,0,19.022-8.602,24.118-15.515   c5.004-6.788,8.164-10.625,14.831-10.654c6.183,0.155,9.475,4.164,14.317,10.704c5.102,6.892,11.455,15.465,24.11,15.465   c12.626,0,18.929-8.566,24.003-15.444c2.16-2.934,4.198-5.701,6.513-7.677c2.587-2.133,5.008-3.06,8.104-3.06   c6.41,0,9.587,3.873,14.653,10.708c5.102,6.892,11.448,15.472,24.103,15.472c3.248,0,5.886-2.637,5.886-5.886   c0-3.248-2.637-5.886-5.886-5.886c-6.41,0-9.579-3.866-14.639-10.708c-5.11-6.892-11.462-15.472-24.118-15.472   c-3.529,0-6.733,0.934-9.8,2.342l-51.249-86.523c-1.056-1.789-2.975-2.889-5.059-2.889h-0.007c-2.077,0-4.003,1.092-5.059,2.882   l-25.873,43.56l-68.449-118.522c-2.098-3.636-8.092-3.636-10.19,0l-68.537,118.554l-25.778-43.585   c-1.092-1.84-3.306-3.047-5.21-2.889c-2.134,0.05-4.068,1.258-5.066,3.14l-51.31,97.395l-1.338,1.82   c-4.944,6.755-8.3,10.895-14.675,10.895c-6.425,0-9.594-3.881-14.653-10.736c-5.074-6.877-11.398-15.444-23.974-15.444   c-3.248,0-5.886,2.637-5.886,5.886C37.649,379.552,40.286,382.189,43.534,382.189z M363.631,300.789l27.416,46.424   c0,0.007,0.007,0.014,0.007,0.022l19.396,32.59c-1.739,1.976-3.284,4.068-4.793,6.116c-5.009,6.806-8.157,10.657-14.517,10.657   c-6.41,0-9.587-3.866-14.653-10.701c-4.527-6.123-10.061-13.589-20.136-15.178l-16.888-29.242L363.631,300.789z M190.683,344.425   l68.486-118.446l68.308,118.297c0.027,0.049,0.013,0.108,0.041,0.156l16.001,27.633c-7.013,2.823-11.395,8.766-15.109,13.803   c-5.059,6.849-8.228,10.729-14.646,10.729c-3.636,0-6.439-1.301-9.421-4.391c-1.876-1.912-3.514-4.154-5.167-6.374   c-5.102-6.87-11.448-15.415-24.031-15.415c-12.605,0-18.922,8.588-23.995,15.487c-5.016,6.827-8.171,10.693-14.502,10.693   c-6.396,0-9.565-3.859-14.624-10.686c-2.99-4.039-6.087-8.214-10.535-11.29c-3.981-2.831-8.43-4.204-13.589-4.204   c-12.576,0-18.9,8.566-23.974,15.444c-4.662,6.318-7.827,9.958-13.307,10.513L190.683,344.425z M154.988,301.299l23.781,40.211   l-29.144,50.356c-1.533-1.63-3.078-3.521-4.856-5.933c-5.095-6.913-11.441-15.515-24.118-15.515c-0.726,0-1.43,0.029-2.113,0.079   L154.988,301.299z"></path><path d="M468.509,458.229c-6.396,0-9.565-3.866-14.617-10.701c-5.102-6.899-11.441-15.479-24.089-15.479   c-12.648,0-18.994,8.581-24.096,15.479c-5.052,6.834-8.221,10.701-14.617,10.701c-6.382,0-9.544-3.866-14.588-10.701   c-5.088-6.899-11.426-15.479-24.06-15.479c-12.634,0-18.965,8.581-24.053,15.479c-5.045,6.834-8.207,10.701-14.581,10.701   s-9.536-3.866-14.581-10.701c-5.088-6.899-11.419-15.479-24.053-15.479c-12.619,0-18.943,8.581-24.024,15.479   c-5.038,6.834-8.192,10.701-14.56,10.701c-6.374,0-9.536-3.866-14.581-10.701c-5.088-6.899-11.419-15.479-24.053-15.479   s-18.965,8.581-24.053,15.479c-5.045,6.834-8.207,10.701-14.581,10.701s-9.536-3.866-14.574-10.701   c-5.088-6.899-11.419-15.479-24.046-15.479c-12.619,0-18.951,8.581-24.031,15.479c-5.038,6.834-8.2,10.701-14.56,10.701   c-6.374,0-9.529-3.866-14.574-10.701c-5.088-6.899-11.419-15.479-24.053-15.479c-3.248,0-5.886,2.637-5.886,5.886   c0,3.248,2.637,5.886,5.886,5.886c6.374,0,9.536,3.866,14.581,10.701C63.153,461.419,69.484,470,82.111,470   c12.619,0,18.951-8.588,24.031-15.479c5.038-6.834,8.2-10.701,14.56-10.701c6.374,0,9.536,3.866,14.574,10.701   c5.088,6.899,11.419,15.479,24.046,15.479c12.634,0,18.965-8.581,24.053-15.479c5.045-6.834,8.207-10.701,14.581-10.701   s9.536,3.866,14.581,10.701C217.625,461.419,223.956,470,236.59,470c12.626,0,18.951-8.588,24.038-15.487   c5.03-6.827,8.185-10.693,14.545-10.693c6.374,0,9.536,3.866,14.581,10.701c5.088,6.899,11.419,15.479,24.053,15.479   s18.965-8.581,24.053-15.479c5.045-6.834,8.207-10.701,14.581-10.701c6.382,0,9.544,3.866,14.588,10.701   c5.088,6.899,11.426,15.479,24.06,15.479c12.641,0,18.986-8.581,24.089-15.472c5.052-6.841,8.221-10.708,14.624-10.708   c6.396,0,9.565,3.866,14.617,10.701c5.102,6.899,11.441,15.479,24.089,15.479c3.248,0,5.886-2.637,5.886-5.886   C474.394,460.866,471.757,458.229,468.509,458.229z"></path><path d="M365.787,193.029c28.113,0,50.98-22.867,50.98-50.98c0-28.106-22.867-50.973-50.98-50.973   c-28.113,0-50.98,22.867-50.98,50.973C314.806,170.162,337.673,193.029,365.787,193.029z M365.787,102.847   c21.617,0,39.209,17.585,39.209,39.202s-17.592,39.209-39.209,39.209s-39.209-17.592-39.209-39.209S344.17,102.847,365.787,102.847   z"></path><path d="M365.787,72.779c3.248,0,5.886-2.637,5.886-5.886V47.886c0-3.248-2.637-5.886-5.886-5.886   c-3.248,0-5.886,2.637-5.886,5.886v19.008C359.901,70.142,362.538,72.779,365.787,72.779z"></path><path d="M308.482,93.067c1.15,1.15,2.652,1.725,4.161,1.725c1.509,0,3.011-0.575,4.161-1.725c2.3-2.3,2.3-6.029,0-8.322   l-13.446-13.439c-2.3-2.3-6.022-2.3-8.322,0c-2.3,2.3-2.3,6.029,0,8.322L308.482,93.067z"></path><path d="M271.616,147.935h19.015c3.248,0,5.886-2.637,5.886-5.886c0-3.248-2.637-5.886-5.886-5.886h-19.015   c-3.248,0-5.886,2.637-5.886,5.886C265.73,145.297,268.368,147.935,271.616,147.935z"></path><path d="M308.482,191.031l-13.446,13.446c-2.3,2.3-2.3,6.022,0,8.322c1.15,1.15,2.652,1.725,4.161,1.725   c1.509,0,3.011-0.575,4.161-1.725l13.446-13.446c2.3-2.3,2.3-6.022,0-8.322C314.504,188.732,310.782,188.732,308.482,191.031z"></path><path d="M359.901,217.211v19.008c0,3.248,2.637,5.886,5.886,5.886c3.248,0,5.886-2.637,5.886-5.886v-19.008   c0-3.248-2.637-5.886-5.886-5.886C362.538,211.326,359.901,213.963,359.901,217.211z"></path><path d="M423.091,191.031c-2.3-2.3-6.022-2.3-8.322,0c-2.3,2.292-2.3,6.022,0,8.322l13.439,13.446   c1.15,1.15,2.652,1.725,4.161,1.725c1.509,0,3.011-0.575,4.161-1.725c2.3-2.292,2.3-6.022,0-8.322L423.091,191.031z"></path><path d="M435.056,142.049c0,3.248,2.637,5.886,5.886,5.886h19.008c3.248,0,5.886-2.637,5.886-5.886   c0-3.248-2.637-5.886-5.886-5.886h-19.008C437.694,136.163,435.056,138.801,435.056,142.049z"></path><path d="M418.93,94.791c1.509,0,3.011-0.575,4.161-1.725l13.439-13.439c2.3-2.3,2.3-6.022,0-8.322c-2.3-2.3-6.022-2.3-8.322,0   l-13.439,13.439c-2.3,2.3-2.3,6.022,0,8.322C415.919,94.216,417.421,94.791,418.93,94.791z"></path></g></svg>