<svg xmlns="http://www.w3.org/2000/svg" xmlns:xlink="http://www.w3.org/1999/xlink" xmlns:xodm="http://www.corel.com/coreldraw/odm/2003" xml:space="preserve" version="1.1" style="shape-rendering:geometricPrecision;text-rendering:geometricPrecision;image-rendering:optimizeQuality;" viewBox="0 0 258 258" x="0px" y="0px" fill-rule="evenodd" clip-rule="evenodd"><defs><style type="text/css">
   
    .fil0 {fill:black;fill-rule:nonzero}
   
  </style></defs><g><path class="fil0" d="M190.839 125.533l-19.743 -18.969c-0.533,-0.512 -0.801,-1.196 -0.801,-1.881l-0.007 0 0 -24.116c0,-0.168 -0.065,-0.319 -0.17,-0.424 -0.111,-0.111 -0.266,-0.18 -0.436,-0.18l-8.508 0c-0.169,0 -0.319,0.066 -0.423,0.17l-0.005 0.005 0.005 0.005c-0.111,0.112 -0.18,0.262 -0.18,0.424l0 9.75c0,1.445 -1.173,2.617 -2.618,2.617 -0.771,0 -1.464,-0.334 -1.943,-0.865l-17.745 -17.042 0 10.878 47.466 45.556c1.676,1.212 3.311,1.34 4.552,0.814 0.53,-0.225 1.001,-0.574 1.377,-1.009 0.363,-0.421 0.63,-0.925 0.769,-1.475 0.317,-1.262 -0.084,-2.812 -1.59,-4.258zm-162.134 5.723c-3.055,1.831 -6.172,1.861 -8.706,0.786 -1.288,-0.546 -2.415,-1.376 -3.299,-2.4 -0.897,-1.038 -1.555,-2.276 -1.894,-3.621 -0.74,-2.941 -0.003,-6.362 3.041,-9.286l57.803 -55.532c1.047,-1.007 2.255,-1.768 3.543,-2.279 1.321,-0.525 2.72,-0.782 4.115,-0.77 1.394,-0.012 2.794,0.245 4.115,0.77 1.288,0.512 2.495,1.273 3.539,2.279l18.677 17.944 0 -3.615c0,-1.609 0.657,-3.07 1.714,-4.128 1.058,-1.057 2.519,-1.714 4.128,-1.714l8.507 0c1.6,0 3.059,0.659 4.122,1.719l0.005 -0.005c1.058,1.058 1.714,2.52 1.714,4.128l0 23.01 18.936 18.193c3.043,2.924 3.782,6.344 3.042,9.285 -0.338,1.346 -0.996,2.583 -1.893,3.622 -0.884,1.024 -2.011,1.854 -3.299,2.401 -2.436,1.032 -5.41,1.044 -8.351,-0.581l0 62.856c0,0.087 -0.002,0.173 -0.006,0.258l40.393 0c0.104,0 0.184,-0.027 0.229,-0.07 0.016,-0.015 0.026,-0.036 0.026,-0.06l0.01 0 -0.181 -62.464 -44.236 -42.457c-0.466,-0.446 -0.833,-0.981 -1.081,-1.564 -0.252,-0.592 -0.387,-1.226 -0.387,-1.863l0 -12.181c0,-1.321 0.517,-2.45 1.321,-3.286 0.45,-0.468 0.989,-0.836 1.576,-1.086 0.596,-0.254 1.236,-0.39 1.875,-0.39 1.147,0 2.316,0.413 3.277,1.338l14.256 13.692 0 -3.618c0,-1.606 0.657,-3.068 1.714,-4.124l0.005 0.005c1.062,-1.06 2.521,-1.719 4.119,-1.719l8.508 0c1.601,0 3.059,0.657 4.116,1.714 1.063,1.062 1.724,2.524 1.724,4.124l0 23.011 18.936 18.193c3.044,2.924 3.781,6.346 3.041,9.288 -0.339,1.345 -0.997,2.583 -1.893,3.621 -0.884,1.024 -2.01,1.853 -3.299,2.4 -2.434,1.032 -5.406,1.045 -8.345,-0.579l0.168 57.945 0.01 0c0,0.056 -0.001,0.111 -0.003,0.166l40.027 0c0.104,0 0.184,-0.027 0.229,-0.07 0.015,-0.015 0.025,-0.036 0.025,-0.059l0 -62.511 -44.226 -42.447c-0.466,-0.446 -0.832,-0.981 -1.081,-1.564 -0.252,-0.593 -0.386,-1.226 -0.386,-1.863l0 -12.181c0,-1.32 0.517,-2.45 1.32,-3.286 0.45,-0.468 0.989,-0.836 1.576,-1.086 0.597,-0.254 1.236,-0.39 1.875,-0.39 1.148,0 2.316,0.413 3.277,1.338l14.257 13.691 0 -3.617c0,-1.606 0.657,-3.067 1.714,-4.124l0.005 0.005c1.062,-1.06 2.521,-1.719 4.118,-1.719l8.508 0c1.601,0 3.06,0.656 4.117,1.714 1.064,1.063 1.725,2.524 1.725,4.124l0 23.011 18.935 18.193c3.045,2.924 3.782,6.345 3.042,9.288 -0.339,1.345 -0.997,2.582 -1.894,3.621 -0.884,1.024 -2.01,1.853 -3.299,2.4 -2.435,1.032 -5.409,1.045 -8.349,-0.581l0 57.984c0,1.488 -0.635,2.84 -1.66,3.821 -0.995,0.952 -2.351,1.543 -3.828,1.543l-42.822 0c-0.408,0 -0.794,-0.094 -1.138,-0.26 -0.494,0.145 -1.015,0.224 -1.553,0.224l-45.84 0 -0.035 0 -98.578 0c-1.513,0 -2.887,-0.617 -3.881,-1.612l0.005 -0.005 -0.005 -0.005c-0.994,-0.994 -1.612,-2.365 -1.612,-3.871l0 -63.062zm104.325 -4.321l-48.642 -46.689c-0.296,-0.283 -0.686,-0.426 -1.081,-0.426 -0.395,0 -0.784,0.143 -1.079,0.426l-48.288 46.345 0 67.727c0,0.072 0.028,0.138 0.073,0.185l0.004 -0.005c0.048,0.048 0.113,0.078 0.181,0.078l29.633 0 0 -41.126c0,-2.141 0.88,-4.092 2.298,-5.509 1.413,-1.412 3.36,-2.287 5.501,-2.287l23.714 0c2.141,0 4.088,0.875 5.501,2.287 1.418,1.417 2.298,3.368 2.298,5.509l0 41.126 29.633 0c0.073,0 0.136,-0.026 0.177,-0.067 0.048,-0.047 0.077,-0.115 0.077,-0.191l0 -67.383zm-111.006 0.303c1.241,0.526 2.876,0.399 4.551,-0.814l52.034 -49.94c1.317,-1.265 3.01,-1.898 4.698,-1.898 1.687,0 3.38,0.633 4.699,1.898l52.03 49.94c1.677,1.213 3.312,1.34 4.554,0.814 0.531,-0.225 1.002,-0.575 1.378,-1.01 0.362,-0.421 0.63,-0.925 0.768,-1.476 0.317,-1.261 -0.084,-2.809 -1.589,-4.255l-19.604 -18.833c-0.579,-0.481 -0.948,-1.206 -0.948,-2.017l0 -24.115c0,-0.164 -0.07,-0.316 -0.181,-0.427l0.005 -0.005 -0.005 -0.005c-0.105,-0.105 -0.256,-0.17 -0.426,-0.17l-8.507 0c-0.164,0 -0.316,0.069 -0.427,0.18 -0.111,0.112 -0.181,0.263 -0.181,0.427l0 9.749 -0.007 0c0,0.651 -0.242,1.303 -0.729,1.809 -0.999,1.039 -2.651,1.071 -3.69,0.072l-23.104 -22.196c-0.554,-0.535 -1.182,-0.934 -1.842,-1.196 -0.693,-0.276 -1.433,-0.41 -2.173,-0.402l-0.041 0c-0.74,-0.008 -1.479,0.126 -2.172,0.402 -0.662,0.263 -1.291,0.662 -1.847,1.196l-57.802 55.531c-1.506,1.446 -1.906,2.995 -1.589,4.256 0.138,0.55 0.406,1.054 0.769,1.475 0.376,0.435 0.847,0.784 1.378,1.01zm47.041 67.338l28.843 0 0 -41.126c0,-0.709 -0.285,-1.349 -0.744,-1.808 -0.465,-0.465 -1.11,-0.753 -1.82,-0.753l-23.714 0c-0.711,0 -1.355,0.288 -1.821,0.753 -0.459,0.459 -0.744,1.099 -0.744,1.808l0 41.126zm14.488 -79.521c1.523,0 3.025,0.147 4.489,0.427 1.479,0.283 2.915,0.706 4.292,1.257 0.547,0.214 1.018,0.536 1.4,0.95 0.375,0.406 0.656,0.897 0.828,1.455 0.176,0.553 0.224,1.116 0.144,1.67 -0.078,0.546 -0.28,1.073 -0.606,1.562l-4.611 6.947 0.003 0.002c-0.444,0.666 -1.064,1.158 -1.778,1.44 -0.699,0.275 -1.482,0.336 -2.269,0.148l-0.001 0.007c-0.316,-0.076 -0.629,-0.132 -0.932,-0.168 -0.302,-0.035 -0.622,-0.054 -0.959,-0.054 -0.337,0 -0.657,0.019 -0.959,0.054 -0.304,0.036 -0.616,0.092 -0.932,0.168 -0.065,0.015 -0.13,0.027 -0.195,0.034 -0.721,0.135 -1.434,0.063 -2.076,-0.19 -0.709,-0.278 -1.327,-0.77 -1.774,-1.439l-4.615 -6.948 -0.081 -0.134c-0.276,-0.454 -0.452,-0.939 -0.523,-1.443 -0.076,-0.542 -0.029,-1.1 0.148,-1.659l-0.004 -0.002c0.174,-0.556 0.459,-1.048 0.841,-1.46 0.379,-0.409 0.847,-0.728 1.392,-0.941l0.047 -0.018c1.361,-0.541 2.78,-0.958 4.242,-1.238 1.464,-0.28 2.966,-0.427 4.489,-0.427zm3.835 3.848c-1.231,-0.235 -2.513,-0.358 -3.835,-0.358 -1.322,0 -2.605,0.123 -3.835,0.358 -1.252,0.24 -2.459,0.594 -3.607,1.05l-0.069 0.029c-0.048,0.019 -0.086,0.043 -0.11,0.069 -0.025,0.026 -0.047,0.069 -0.064,0.125l-0.005 -0.002 -0.002 0.008c-0.016,0.05 -0.021,0.097 -0.014,0.141 0.004,0.029 0.014,0.06 0.03,0.093l4.637 6.98c0.04,0.062 0.091,0.104 0.144,0.125 0.042,0.016 0.089,0.023 0.137,0.021l0.063 -0.017c0.423,-0.1 0.872,-0.18 1.341,-0.235 0.457,-0.053 0.91,-0.081 1.354,-0.081 0.444,0 0.897,0.028 1.354,0.081 0.469,0.055 0.918,0.135 1.341,0.235l-0.002 0.007c0.072,0.017 0.141,0.012 0.2,-0.011 0.048,-0.019 0.098,-0.064 0.143,-0.132l0.004 0.002 4.612 -6.943c0.029,-0.043 0.047,-0.086 0.053,-0.125 0.005,-0.037 -0.001,-0.086 -0.019,-0.144l0 -0.006c-0.017,-0.053 -0.04,-0.096 -0.068,-0.126 -0.022,-0.025 -0.058,-0.047 -0.104,-0.065l-0.014 -0.007c-1.166,-0.467 -2.392,-0.828 -3.665,-1.072zm13.119 3.279c1.505,1.536 2.801,3.272 3.843,5.16 1.023,1.857 1.806,3.866 2.304,5.983 0.209,0.882 0.216,1.764 0.028,2.618 -0.188,0.853 -0.567,1.651 -1.129,2.365l-0.057 0.068c-0.56,0.688 -1.232,1.222 -1.993,1.59 -0.786,0.38 -1.646,0.576 -2.559,0.576l-7.547 0c-0.963,0 -1.745,-0.781 -1.745,-1.745 0,-0.881 -0.138,-1.724 -0.392,-2.505 -0.269,-0.826 -0.659,-1.586 -1.148,-2.257l-0.003 0.002c-0.474,-0.648 -0.72,-1.4 -0.737,-2.164 -0.017,-0.76 0.195,-1.517 0.637,-2.181l4.613 -6.948c0.322,-0.486 0.731,-0.877 1.213,-1.165 0.476,-0.284 1.012,-0.458 1.593,-0.514 0.583,-0.058 1.144,0.012 1.666,0.202 0.527,0.191 1.002,0.498 1.413,0.915zm0.789 6.837c-0.891,-1.616 -1.994,-3.095 -3.27,-4.398 -0.041,-0.041 -0.081,-0.07 -0.118,-0.083 -0.036,-0.013 -0.083,-0.017 -0.14,-0.012l-0.013 0c-0.056,0.005 -0.102,0.019 -0.135,0.038 -0.03,0.018 -0.062,0.053 -0.095,0.102l-4.613 6.948c-0.044,0.066 -0.066,0.133 -0.065,0.191 0.002,0.052 0.025,0.113 0.07,0.174l-0.004 0.002 0.004 0.005c0.713,0.979 1.277,2.068 1.655,3.229 0.194,0.595 0.341,1.209 0.437,1.838l5.935 0c0.392,0 0.744,-0.076 1.046,-0.222 0.293,-0.142 0.561,-0.357 0.796,-0.642l0.027 -0.035c0.243,-0.309 0.403,-0.633 0.475,-0.961 0.072,-0.328 0.064,-0.69 -0.028,-1.077 -0.424,-1.803 -1.091,-3.514 -1.964,-5.097zm-12.028 11.523l-11.431 0c-0.964,0 -1.745,-0.781 -1.745,-1.745 0,-0.998 0.203,-1.96 0.569,-2.846 0.378,-0.917 0.932,-1.74 1.614,-2.425l0.007 -0.007c0.686,-0.683 1.509,-1.237 2.425,-1.616 0.885,-0.367 1.847,-0.57 2.846,-0.57 0.998,0 1.96,0.203 2.846,0.57 0.916,0.379 1.74,0.933 2.426,1.616l0.006 0.007c0.683,0.684 1.235,1.505 1.614,2.421 0.366,0.887 0.568,1.851 0.568,2.85 0,0.964 -0.781,1.745 -1.745,1.745zm-9.291 -3.489l7.154 0c-0.193,-0.396 -0.452,-0.757 -0.763,-1.069 -0.37,-0.368 -0.809,-0.665 -1.291,-0.864 -0.461,-0.191 -0.976,-0.297 -1.524,-0.297 -0.549,0 -1.064,0.106 -1.524,0.296 -0.482,0.2 -0.92,0.496 -1.29,0.864 -0.31,0.311 -0.569,0.673 -0.762,1.07zm-6.268 3.489l-7.547 0c-0.912,0 -1.773,-0.196 -2.559,-0.576 -0.783,-0.379 -1.472,-0.934 -2.042,-1.652l-0.085 -0.115c-0.523,-0.691 -0.876,-1.45 -1.055,-2.254 -0.189,-0.854 -0.182,-1.737 0.027,-2.62 0.5,-2.118 1.284,-4.126 2.309,-5.982 1.042,-1.886 2.337,-3.618 3.839,-5.15 0.413,-0.423 0.888,-0.734 1.411,-0.926l0.112 -0.036c0.491,-0.163 1.016,-0.221 1.56,-0.167l0.076 0.009c0.552,0.064 1.061,0.234 1.516,0.505 0.481,0.288 0.89,0.68 1.213,1.166l4.61 6.948 0.05 0.08c0.408,0.646 0.603,1.372 0.589,2.098 -0.016,0.764 -0.26,1.515 -0.729,2.16l-0.042 0.056c-0.477,0.664 -0.857,1.406 -1.116,2.202 -0.254,0.783 -0.392,1.626 -0.392,2.509 0,0.964 -0.781,1.745 -1.745,1.745zm-7.547 -3.489l5.935 0c0.096,-0.63 0.243,-1.246 0.437,-1.841 0.372,-1.143 0.919,-2.21 1.608,-3.168l0.041 -0.058c0.047,-0.066 0.073,-0.13 0.074,-0.184 0,-0.048 -0.014,-0.101 -0.042,-0.152l-4.634 -6.984c-0.033,-0.049 -0.066,-0.084 -0.096,-0.102 -0.026,-0.016 -0.061,-0.027 -0.102,-0.034l-0.045 -0.004c-0.042,-0.004 -0.079,-0.002 -0.111,0.005l-0.021 0.008c-0.038,0.014 -0.077,0.041 -0.115,0.079l-0.007 0.007c-1.277,1.302 -2.381,2.78 -3.273,4.395 -0.875,1.583 -1.544,3.294 -1.969,5.096 -0.091,0.386 -0.099,0.75 -0.026,1.079 0.067,0.305 0.205,0.602 0.412,0.882l0.059 0.07c0.242,0.306 0.522,0.535 0.829,0.684 0.302,0.146 0.654,0.222 1.046,0.222zm170.372 -11.52l-19.744 -18.969c-0.532,-0.512 -0.8,-1.196 -0.8,-1.881l-0.007 0 0 -24.116c0,-0.168 -0.066,-0.319 -0.171,-0.424 -0.111,-0.11 -0.266,-0.18 -0.437,-0.18l-8.508 0c-0.168,0 -0.318,0.066 -0.422,0.171l-0.006 0.005 0.006 0.005c-0.112,0.111 -0.181,0.261 -0.181,0.423l0 9.75c0,1.445 -1.172,2.617 -2.617,2.617 -0.773,0 -1.467,-0.335 -1.947,-0.868l-17.741 -17.039 0 10.878 47.464 45.555c1.677,1.213 3.312,1.341 4.554,0.815 0.53,-0.225 1.001,-0.574 1.377,-1.01 0.363,-0.42 0.63,-0.924 0.769,-1.474 0.317,-1.262 -0.084,-2.812 -1.589,-4.258z"></path></g></svg>