<svg xmlns="http://www.w3.org/2000/svg" viewBox="0 0 40 40" x="0px" y="0px"><path d="M13,24.5a1,1,0,0,0,1-1v-4a1,1,0,0,0-1-1H9a1,1,0,0,0-1,1v4a1,1,0,0,0,1,1Zm-3-4h2v2H10Z"></path><path d="M18,24.5h4a1,1,0,0,0,1-1v-4a1,1,0,0,0-1-1H18a1,1,0,0,0-1,1v4A1,1,0,0,0,18,24.5Zm1-4h2v2H19Z"></path><path d="M11.94,37.5A2.57,2.57,0,0,0,12,32.37s0-.06,0-.1,0-.28,0-.42,0-.07,0-.11A5,5,0,1,0,7,37.5Z"></path><path d="M36.77,26.22a2.25,2.25,0,0,1-.32-2,6.91,6.91,0,0,0,.22-1.71A6.29,6.29,0,0,0,36,19.58a.24.24,0,0,0,0-.08v-3h1a1,1,0,0,0,.94-1.35L35.18,7.8a2,2,0,0,0-1.87-1.3H32v-3a1,1,0,0,0-1-1H27a1,1,0,0,0-1,1v3H14v-3a1,1,0,0,0-1-1H9a1,1,0,0,0-1,1v3H6.69A2,2,0,0,0,4.82,7.8L2.06,15.15A1,1,0,0,0,3,16.5H4v9a1,1,0,0,0,2,0v-9H34v1.2a2.83,2.83,0,0,0-1-.2,3.17,3.17,0,0,0-2.4,1.22,1,1,0,0,0-.6-.22H27a1,1,0,0,0-1,1v4a1,1,0,0,0,1,1h1a1,1,0,0,0,0-2v-2h1.63a6.71,6.71,0,0,0-.3,2,6.91,6.91,0,0,0,.22,1.71,2.21,2.21,0,0,1-.36,2.05A5,5,0,0,0,32,34.38h0s0,.08,0,.12v1H25a1,1,0,0,1-1-1v-4a4,4,0,0,0-1.25-2.9,3.91,3.91,0,0,0-3-1.09A4.09,4.09,0,0,0,16,30.67V36.5a1,1,0,0,0,2,0V30.67a2.13,2.13,0,0,1,1.89-2.17,2,2,0,0,1,1.49.55A2,2,0,0,1,22,30.5v4a3,3,0,0,0,3,3h8a1,1,0,0,0,1-1v-2s0-.07,0-.11h0V29.73s0-.79.6-.79a.71.71,0,0,1,.73.76v4.21a4.66,4.66,0,0,0,1-.67,5,5,0,0,0,.45-7ZM28,4.5h2v2H28Zm-18,0h2v2H10Z"></path></svg>